# MagicaVoxel @ ephtracy

# material
mtllib php-cache.mtl
usemtl palette

# normals
vn -1 0 0
vn 1 0 0
vn 0 0 1
vn 0 0 -1
vn 0 -1 0
vn 0 1 0

# texcoords
vt 0.970703 0.5
vt 0.974609 0.5
vt 0.978516 0.5

# verts
v -3 0 3
v -3 0 -3
v -3 1 3
v -3 1 -3
v -3 2 3
v -3 2 -3
v -3 3 3
v -3 3 -3
v -3 4 3
v -3 4 -3
v -3 5 3
v -3 5 -3
v 3 0 3
v 3 0 -3
v 3 1 3
v 3 1 -3
v 3 2 3
v 3 2 -3
v 3 3 3
v 3 3 -3
v 3 4 3
v 3 4 -3
v 3 5 3
v 3 5 -3
v -3 0 3
v -3 1 3
v -3 2 3
v -3 3 3
v -3 4 3
v -3 5 3
v 3 0 3
v 3 1 3
v 3 2 3
v 3 3 3
v 3 4 3
v 3 5 3
v -3 0 -3
v -3 1 -3
v -3 2 -3
v -3 3 -3
v -3 4 -3
v -3 5 -3
v 3 0 -3
v 3 1 -3
v 3 2 -3
v 3 3 -3
v 3 4 -3
v 3 5 -3
v -3 0 3
v 3 0 3
v -3 0 -3
v 3 0 -3
v -3 2 3
v 3 2 3
v -3 2 -3
v 3 2 -3
v -3 4 3
v 3 4 3
v -3 4 -3
v 3 4 -3
v -3 1 3
v 3 1 3
v -3 1 -3
v 3 1 -3
v -3 3 3
v 3 3 3
v -3 3 -3
v 3 3 -3
v -3 5 3
v 3 5 3
v -3 5 -3
v 3 5 -3

# faces
f 3/3/1 2/3/1 1/3/1
f 4/3/1 2/3/1 3/3/1
f 7/2/1 6/2/1 5/2/1
f 8/2/1 6/2/1 7/2/1
f 11/1/1 10/1/1 9/1/1
f 12/1/1 10/1/1 11/1/1
f 13/3/2 14/3/2 15/3/2
f 15/3/2 14/3/2 16/3/2
f 17/2/2 18/2/2 19/2/2
f 19/2/2 18/2/2 20/2/2
f 21/1/2 22/1/2 23/1/2
f 23/1/2 22/1/2 24/1/2
f 31/3/3 26/3/3 25/3/3
f 32/3/3 26/3/3 31/3/3
f 33/2/3 28/2/3 27/2/3
f 34/2/3 28/2/3 33/2/3
f 35/1/3 30/1/3 29/1/3
f 36/1/3 30/1/3 35/1/3
f 37/3/4 38/3/4 43/3/4
f 43/3/4 38/3/4 44/3/4
f 39/2/4 40/2/4 45/2/4
f 45/2/4 40/2/4 46/2/4
f 41/1/4 42/1/4 47/1/4
f 47/1/4 42/1/4 48/1/4
f 51/3/5 50/3/5 49/3/5
f 52/3/5 50/3/5 51/3/5
f 55/2/5 54/2/5 53/2/5
f 56/2/5 54/2/5 55/2/5
f 59/1/5 58/1/5 57/1/5
f 60/1/5 58/1/5 59/1/5
f 61/3/6 62/3/6 63/3/6
f 63/3/6 62/3/6 64/3/6
f 65/2/6 66/2/6 67/2/6
f 67/2/6 66/2/6 68/2/6
f 69/1/6 70/1/6 71/1/6
f 71/1/6 70/1/6 72/1/6
